<svg width="102" height="102" viewBox="0 0 102 102" fill="none" xmlns="http://www.w3.org/2000/svg">
<g id="Github">
<path d="M93 51C93 74.196 74.196 93 51 93C27.804 93 9 74.196 9 51C9 27.804 27.804 9 51 9C74.196 9 93 27.804 93 51Z" fill="white"/>
<path fill-rule="evenodd" clip-rule="evenodd" d="M50.5006 22.2292C43.4974 22.2328 36.7238 24.7132 31.3911 29.2269C26.0583 33.7405 22.5141 39.9931 21.3922 46.8666C20.2703 53.74 21.6439 60.7862 25.2673 66.7451C28.8908 72.704 34.5278 77.1871 41.1704 79.3927C42.6359 79.6647 43.1879 78.7564 43.1879 77.9841C43.1879 77.2119 43.1586 74.9727 43.1488 72.5247C34.9422 74.2976 33.208 69.0616 33.208 69.0616C31.8696 65.6616 29.9351 64.7679 29.9351 64.7679C27.2582 62.9513 30.1354 62.9853 30.1354 62.9853C33.1006 63.1942 34.6589 66.0113 34.6589 66.0113C37.287 70.4945 41.5612 69.1976 43.2416 68.4399C43.5054 66.5408 44.2724 65.2488 45.1175 64.5153C38.5619 63.777 31.6742 61.261 31.6742 50.0217C31.6335 47.1068 32.7214 44.2879 34.7126 42.1483C34.4097 41.41 33.3985 38.4277 35.0008 34.3768C35.0008 34.3768 37.4775 33.59 43.1147 37.3834C47.9499 36.0687 53.0514 36.0687 57.8866 37.3834C63.5189 33.59 65.9907 34.3768 65.9907 34.3768C67.5978 38.418 66.5867 41.4003 66.2838 42.1483C68.2813 44.2883 69.3714 47.112 69.3271 50.0314C69.3271 61.295 62.4247 63.777 55.8594 64.5008C56.9145 65.4139 57.8573 67.1965 57.8573 69.9359C57.8573 73.8604 57.8231 77.0176 57.8231 77.9841C57.8231 78.7661 58.3556 79.6793 59.8503 79.3927C66.4938 77.1868 72.1313 72.7029 75.7547 66.743C79.3781 60.7831 80.751 53.7359 79.6278 46.8618C78.5046 39.9877 74.9587 33.735 69.6242 29.2222C64.2896 24.7093 57.5145 22.2305 50.5104 22.2292H50.5006Z" fill="#080510"/>
<path d="M40.7351 70.1058C40.7351 70.3438 40.4615 70.5478 40.1098 70.5527C39.7581 70.5576 39.4699 70.3633 39.4699 70.1253C39.4699 69.8873 39.7434 69.6833 40.0952 69.6784C40.4469 69.6736 40.7351 69.863 40.7351 70.1058Z" fill="#080510"/>
<path d="M42.9821 69.7318C43.0261 69.9698 42.7819 70.2176 42.4301 70.2758C42.0784 70.3341 41.7707 70.1933 41.7267 69.9601C41.6828 69.727 41.9368 69.4744 42.2787 69.4113C42.6207 69.3481 42.9382 69.4939 42.9821 69.7318Z" fill="#080510"/>
<path d="M38.3219 69.9407C38.2486 70.169 37.9164 70.271 37.5842 70.1739C37.2521 70.0767 37.0322 69.8047 37.0957 69.5716C37.1592 69.3384 37.4963 69.2316 37.8334 69.3384C38.1704 69.4453 38.3854 69.7027 38.3219 69.9407Z" fill="#080510"/>
<path d="M36.1091 68.9888C35.9478 69.1685 35.6206 69.1199 35.3519 68.877C35.0832 68.6342 35.0197 68.3039 35.1809 68.129C35.3421 67.9542 35.6694 68.0028 35.9478 68.2408C36.2263 68.4788 36.28 68.8139 36.1091 68.9888Z" fill="#080510"/>
<path d="M34.5313 67.3568C34.3505 67.483 34.0428 67.3568 33.8718 67.1042C33.8245 67.0589 33.7869 67.0045 33.7612 66.9445C33.7355 66.8844 33.7223 66.8198 33.7223 66.7545C33.7223 66.6892 33.7355 66.6246 33.7612 66.5645C33.7869 66.5044 33.8245 66.4501 33.8718 66.4048C34.0525 66.2833 34.3603 66.4048 34.5313 66.6525C34.7022 66.9002 34.7071 67.2305 34.5313 67.3568Z" fill="#080510"/>
<path d="M33.3686 65.6714C33.2674 65.722 33.1517 65.7362 33.0412 65.7114C32.9307 65.6866 32.8323 65.6243 32.7629 65.5354C32.5724 65.3314 32.5333 65.0496 32.6798 64.9234C32.8264 64.7971 33.0902 64.8554 33.2807 65.0594C33.4712 65.2634 33.5151 65.5451 33.3686 65.6714Z" fill="#080510"/>
<path d="M32.1717 64.3453C32.1082 64.4911 31.8738 64.5348 31.6833 64.4328C31.4927 64.3308 31.3511 64.1413 31.4195 63.9908C31.4879 63.8402 31.7175 63.8013 31.908 63.9033C32.0985 64.0053 32.245 64.1996 32.1717 64.3453Z" fill="#080510"/>
<path d="M51 97.5C76.6812 97.5 97.5 76.6812 97.5 51C97.5 25.3188 76.6812 4.5 51 4.5C25.3188 4.5 4.5 25.3188 4.5 51C4.5 76.6812 25.3188 97.5 51 97.5Z" stroke="black" stroke-width="9"/>
</g>
</svg>
