<svg width="103" height="417" viewBox="0 0 103 417" fill="none" xmlns="http://www.w3.org/2000/svg">
<g id="Social-Buttons">
<g id="Instagram">
<path d="M93 366C93 389.196 74.196 408 51 408C27.804 408 9 389.196 9 366C9 342.804 27.804 324 51 324C74.196 324 93 342.804 93 366Z" fill="white"/>
<path d="M51.5 342.312C59.382 342.312 60.3154 342.347 63.4153 342.485C66.2961 342.612 67.8518 343.096 68.8889 343.499C70.2602 344.029 71.2512 344.675 72.2768 345.7C73.3139 346.737 73.9477 347.717 74.4778 349.088C74.8811 350.125 75.3651 351.692 75.4918 354.562C75.6301 357.673 75.6647 358.606 75.6647 366.477C75.6647 374.359 75.6301 375.292 75.4918 378.392C75.3651 381.273 74.8811 382.829 74.4778 383.866C73.9477 385.237 73.3024 386.228 72.2768 387.254C71.2397 388.291 70.2602 388.925 68.8889 389.455C67.8518 389.858 66.2846 390.342 63.4153 390.469C60.3039 390.607 59.3705 390.642 51.5 390.642C43.618 390.642 42.6846 390.607 39.5848 390.469C36.7039 390.342 35.1482 389.858 34.1111 389.455C32.7398 388.925 31.7488 388.279 30.7232 387.254C29.6861 386.217 29.0523 385.237 28.5223 383.866C28.1189 382.829 27.635 381.262 27.5082 378.392C27.3699 375.281 27.3354 374.347 27.3354 366.477C27.3354 358.595 27.3699 357.662 27.5082 354.562C27.635 351.681 28.1189 350.125 28.5223 349.088C29.0523 347.717 29.6977 346.726 30.7232 345.7C31.7604 344.663 32.7398 344.029 34.1111 343.499C35.1482 343.096 36.7154 342.612 39.5848 342.485C42.6846 342.347 43.618 342.312 51.5 342.312ZM51.5 337C43.4912 337 42.4887 337.035 39.3428 337.173C36.2084 337.311 34.0535 337.818 32.1867 338.544C30.2393 339.305 28.5914 340.307 26.9551 341.955C25.3072 343.591 24.3047 345.239 23.5441 347.175C22.8182 349.054 22.3111 351.197 22.1729 354.331C22.0346 357.489 22 358.491 22 366.5C22 374.509 22.0346 375.511 22.1729 378.657C22.3111 381.792 22.8182 383.947 23.5441 385.813C24.3047 387.761 25.3072 389.409 26.9551 391.045C28.5914 392.681 30.2393 393.695 32.1752 394.444C34.0535 395.17 36.1969 395.677 39.3313 395.816C42.4772 395.954 43.4797 395.989 51.4885 395.989C59.4973 395.989 60.4998 395.954 63.6457 395.816C66.7801 395.677 68.935 395.17 70.8018 394.444C72.7377 393.695 74.3856 392.681 76.0219 391.045C77.6582 389.409 78.6723 387.761 79.4213 385.825C80.1473 383.947 80.6543 381.803 80.7926 378.669C80.9309 375.523 80.9655 374.52 80.9655 366.512C80.9655 358.503 80.9309 357.5 80.7926 354.354C80.6543 351.22 80.1473 349.065 79.4213 347.198C78.6953 345.239 77.6928 343.591 76.0449 341.955C74.4086 340.319 72.7608 339.305 70.8248 338.556C68.9465 337.83 66.8031 337.323 63.6688 337.184C60.5113 337.035 59.5088 337 51.5 337Z" fill="#080510"/>
<path d="M51.5 351.347C43.134 351.347 36.3467 358.134 36.3467 366.5C36.3467 374.866 43.134 381.653 51.5 381.653C59.866 381.653 66.6533 374.866 66.6533 366.5C66.6533 358.134 59.866 351.347 51.5 351.347ZM51.5 376.329C46.0725 376.329 41.6705 371.928 41.6705 366.5C41.6705 361.072 46.0725 356.671 51.5 356.671C56.9275 356.671 61.3295 361.072 61.3295 366.5C61.3295 371.928 56.9275 376.329 51.5 376.329Z" fill="#080510"/>
<path d="M70.7902 350.747C70.7902 352.706 69.2 354.285 67.2525 354.285C65.2936 354.285 63.7148 352.695 63.7148 350.747C63.7148 348.788 65.3051 347.21 67.2525 347.21C69.2 347.21 70.7902 348.8 70.7902 350.747Z" fill="#080510"/>
<path d="M51 412.5C76.6812 412.5 97.5 391.681 97.5 366C97.5 340.319 76.6812 319.5 51 319.5C25.3188 319.5 4.5 340.319 4.5 366C4.5 391.681 25.3188 412.5 51 412.5Z" stroke="black" stroke-width="9"/>
</g>
<g id="Facebook">
<path d="M93 261C93 284.196 74.196 303 51 303C27.804 303 9 284.196 9 261C9 237.804 27.804 219 51 219C74.196 219 93 237.804 93 261Z" fill="white"/>
<path d="M82.6842 260.827C82.6842 243.017 68.3338 228.579 50.6316 228.579C32.9294 228.579 18.5789 243.017 18.5789 260.827C18.5789 276.923 30.3001 290.265 45.6234 292.684V270.149H37.485V260.827H45.6234V253.723C45.6234 245.64 50.4087 241.176 57.7301 241.176C61.2359 241.176 64.905 241.806 64.905 241.806V249.742H60.8634C56.8818 249.742 55.6398 252.228 55.6398 254.781V260.827H64.5294L63.1083 270.149H55.6398V292.684C70.9631 290.265 82.6842 276.923 82.6842 260.827Z" fill="#080510"/>
<path d="M51 307.5C76.6812 307.5 97.5 286.681 97.5 261C97.5 235.319 76.6812 214.5 51 214.5C25.3188 214.5 4.5 235.319 4.5 261C4.5 286.681 25.3188 307.5 51 307.5Z" stroke="black" stroke-width="9"/>
</g>
<g id="Github">
<path d="M94 51C94 74.196 75.196 93 52 93C28.804 93 10 74.196 10 51C10 27.804 28.804 9 52 9C75.196 9 94 27.804 94 51Z" fill="white"/>
<path fill-rule="evenodd" clip-rule="evenodd" d="M51.5006 22.2292C44.4974 22.2328 37.7238 24.7132 32.3911 29.2269C27.0583 33.7405 23.5141 39.9931 22.3922 46.8666C21.2703 53.74 22.6439 60.7862 26.2673 66.7451C29.8908 72.704 35.5278 77.1871 42.1704 79.3927C43.6359 79.6647 44.1879 78.7564 44.1879 77.9841C44.1879 77.2119 44.1586 74.9727 44.1488 72.5247C35.9422 74.2976 34.208 69.0616 34.208 69.0616C32.8696 65.6616 30.9351 64.7679 30.9351 64.7679C28.2582 62.9513 31.1354 62.9853 31.1354 62.9853C34.1006 63.1942 35.6589 66.0113 35.6589 66.0113C38.287 70.4945 42.5612 69.1976 44.2416 68.4399C44.5054 66.5408 45.2724 65.2488 46.1175 64.5153C39.5619 63.777 32.6742 61.261 32.6742 50.0217C32.6335 47.1068 33.7214 44.2879 35.7126 42.1483C35.4097 41.41 34.3985 38.4277 36.0008 34.3768C36.0008 34.3768 38.4775 33.59 44.1147 37.3834C48.9499 36.0687 54.0514 36.0687 58.8866 37.3834C64.5189 33.59 66.9907 34.3768 66.9907 34.3768C68.5978 38.418 67.5867 41.4003 67.2838 42.1483C69.2813 44.2883 70.3714 47.112 70.3271 50.0314C70.3271 61.295 63.4247 63.777 56.8594 64.5008C57.9145 65.4139 58.8573 67.1965 58.8573 69.9359C58.8573 73.8604 58.8231 77.0176 58.8231 77.9841C58.8231 78.7661 59.3556 79.6793 60.8503 79.3927C67.4938 77.1868 73.1313 72.7029 76.7547 66.743C80.3781 60.7831 81.751 53.7359 80.6278 46.8618C79.5046 39.9877 75.9587 33.735 70.6242 29.2222C65.2896 24.7093 58.5145 22.2305 51.5104 22.2292H51.5006Z" fill="#080510"/>
<path d="M41.7351 70.1058C41.7351 70.3438 41.4615 70.5478 41.1098 70.5527C40.7581 70.5576 40.4699 70.3633 40.4699 70.1253C40.4699 69.8873 40.7434 69.6833 41.0952 69.6784C41.4469 69.6736 41.7351 69.863 41.7351 70.1058Z" fill="#080510"/>
<path d="M43.9821 69.7318C44.0261 69.9698 43.7819 70.2176 43.4301 70.2758C43.0784 70.3341 42.7707 70.1933 42.7267 69.9601C42.6828 69.727 42.9368 69.4744 43.2787 69.4113C43.6207 69.3481 43.9382 69.4939 43.9821 69.7318Z" fill="#080510"/>
<path d="M39.3219 69.9407C39.2486 70.169 38.9164 70.271 38.5842 70.1739C38.2521 70.0767 38.0322 69.8047 38.0957 69.5716C38.1592 69.3384 38.4963 69.2316 38.8334 69.3384C39.1704 69.4453 39.3854 69.7027 39.3219 69.9407Z" fill="#080510"/>
<path d="M37.1091 68.9888C36.9478 69.1685 36.6206 69.1199 36.3519 68.877C36.0832 68.6342 36.0197 68.3039 36.1809 68.129C36.3421 67.9542 36.6694 68.0028 36.9478 68.2408C37.2263 68.4788 37.28 68.8139 37.1091 68.9888Z" fill="#080510"/>
<path d="M35.5313 67.3568C35.3505 67.483 35.0428 67.3568 34.8718 67.1042C34.8245 67.0589 34.7869 67.0045 34.7612 66.9445C34.7355 66.8844 34.7223 66.8198 34.7223 66.7545C34.7223 66.6892 34.7355 66.6246 34.7612 66.5645C34.7869 66.5044 34.8245 66.4501 34.8718 66.4048C35.0525 66.2833 35.3603 66.4048 35.5313 66.6525C35.7022 66.9002 35.7071 67.2305 35.5313 67.3568Z" fill="#080510"/>
<path d="M34.3686 65.6714C34.2674 65.722 34.1517 65.7362 34.0412 65.7114C33.9307 65.6866 33.8323 65.6243 33.7629 65.5354C33.5724 65.3314 33.5333 65.0496 33.6798 64.9234C33.8264 64.7971 34.0902 64.8554 34.2807 65.0594C34.4712 65.2634 34.5151 65.5451 34.3686 65.6714Z" fill="#080510"/>
<path d="M33.1717 64.3453C33.1082 64.4911 32.8738 64.5348 32.6833 64.4328C32.4927 64.3308 32.3511 64.1413 32.4195 63.9908C32.4879 63.8402 32.7175 63.8013 32.908 63.9033C33.0985 64.0053 33.245 64.1996 33.1717 64.3453Z" fill="#080510"/>
<path d="M52 97.5C77.6812 97.5 98.5 76.6812 98.5 51C98.5 25.3188 77.6812 4.5 52 4.5C26.3188 4.5 5.5 25.3188 5.5 51C5.5 76.6812 26.3188 97.5 52 97.5Z" stroke="black" stroke-width="9"/>
</g>
<g id="Google">
<path d="M94 156C94 179.196 75.196 198 52 198C28.804 198 10 179.196 10 156C10 132.804 28.804 114 52 114C75.196 114 94 132.804 94 156Z" fill="white"/>
<path fill-rule="evenodd" clip-rule="evenodd" d="M64.4065 143.097C61.3606 140.192 57.2958 138.609 53.09 138.674C45.3939 138.674 38.8576 143.866 36.5271 150.858C35.2914 154.522 35.2914 158.489 36.5271 162.153H36.5379C38.8792 169.134 45.4047 174.326 53.1008 174.326C57.0736 174.326 60.4842 173.31 63.1275 171.515V171.508C66.2385 169.448 68.3631 166.207 69.0243 162.543H53.09V151.183H80.9154C81.2622 153.156 81.4248 155.172 81.4248 157.178C81.4248 166.15 78.2182 173.736 72.6388 178.874L72.6447 178.878C67.756 183.388 61.0463 186 53.09 186C41.936 186 31.7359 179.713 26.728 169.751C22.544 161.416 22.544 151.595 26.7281 143.259C31.736 133.287 41.936 127 53.09 127C60.4176 126.913 67.4958 129.667 72.8289 134.674L64.4065 143.097Z" fill="#080510"/>
<path d="M52 202.5C77.6812 202.5 98.5 181.681 98.5 156C98.5 130.319 77.6812 109.5 52 109.5C26.3188 109.5 5.5 130.319 5.5 156C5.5 181.681 26.3188 202.5 52 202.5Z" stroke="black" stroke-width="9"/>
</g>
</g>
</svg>
