<svg width="102" height="102" viewBox="0 0 102 102" fill="none" xmlns="http://www.w3.org/2000/svg">
<g id="Facebook">
<path d="M93 51C93 74.196 74.196 93 51 93C27.804 93 9 74.196 9 51C9 27.804 27.804 9 51 9C74.196 9 93 27.804 93 51Z" fill="white"/>
<path d="M82.6842 50.8275C82.6842 33.0171 68.3338 18.5789 50.6316 18.5789C32.9294 18.5789 18.5789 33.0171 18.5789 50.8275C18.5789 66.9234 30.3001 80.2649 45.6234 82.6842V60.1493H37.485V50.8275H45.6234V43.7227C45.6234 35.6404 50.4087 31.176 57.7301 31.176C61.2359 31.176 64.905 31.8059 64.905 31.8059V39.742H60.8634C56.8818 39.742 55.6398 42.2281 55.6398 44.7809V50.8275H64.5294L63.1083 60.1493H55.6398V82.6842C70.9631 80.2649 82.6842 66.9234 82.6842 50.8275Z" fill="#080510"/>
<path d="M51 97.5C76.6812 97.5 97.5 76.6812 97.5 51C97.5 25.3188 76.6812 4.5 51 4.5C25.3188 4.5 4.5 25.3188 4.5 51C4.5 76.6812 25.3188 97.5 51 97.5Z" stroke="black" stroke-width="9"/>
</g>
</svg>
