<svg width="102" height="102" viewBox="0 0 102 102" fill="none" xmlns="http://www.w3.org/2000/svg">
<g id="Google">
<path d="M93 51C93 74.196 74.196 93 51 93C27.804 93 9 74.196 9 51C9 27.804 27.804 9 51 9C74.196 9 93 27.804 93 51Z" fill="white"/>
<path fill-rule="evenodd" clip-rule="evenodd" d="M63.4065 38.0968C60.3606 35.1918 56.2958 33.6092 52.09 33.6742C44.3939 33.6742 37.8576 38.8664 35.5271 45.8579C34.2914 49.5216 34.2914 53.4891 35.5271 57.1529H35.5379C37.8792 64.1336 44.4047 69.3257 52.1008 69.3257C56.0736 69.3257 59.4842 68.3096 62.1275 66.5148V66.5075C65.2385 64.448 67.3631 61.2069 68.0243 57.5431H52.09V46.1832H79.9154C80.2622 48.156 80.4248 50.1722 80.4248 52.1775C80.4248 61.1501 77.2182 68.736 71.6388 73.8739L71.6447 73.8784C66.756 78.3877 60.0463 81 52.09 81C40.936 81 30.7359 74.713 25.728 64.7514C21.544 56.4158 21.544 46.5951 25.7281 38.2594C30.736 28.287 40.936 22 52.09 22C59.4176 21.9132 66.4958 24.6665 71.8289 29.6744L63.4065 38.0968Z" fill="#080510"/>
<path d="M51 97.5C76.6812 97.5 97.5 76.6812 97.5 51C97.5 25.3188 76.6812 4.5 51 4.5C25.3188 4.5 4.5 25.3188 4.5 51C4.5 76.6812 25.3188 97.5 51 97.5Z" stroke="black" stroke-width="9"/>
</g>
</svg>
