<svg width="102" height="102" viewBox="0 0 102 102" fill="none" xmlns="http://www.w3.org/2000/svg">
<g id="Instagram">
<path d="M93 51C93 74.196 74.196 93 51 93C27.804 93 9 74.196 9 51C9 27.804 27.804 9 51 9C74.196 9 93 27.804 93 51Z" fill="white"/>
<path d="M51.5 27.3123C59.382 27.3123 60.3154 27.3469 63.4153 27.4852C66.2961 27.6119 67.8518 28.0959 68.8889 28.4992C70.2602 29.0293 71.2512 29.6746 72.2768 30.7002C73.3139 31.7373 73.9477 32.7168 74.4778 34.0881C74.8811 35.1252 75.3651 36.6924 75.4918 39.5617C75.6301 42.6731 75.6647 43.6065 75.6647 51.477C75.6647 59.359 75.6301 60.2924 75.4918 63.3922C75.3651 66.2731 74.8811 67.8287 74.4778 68.8659C73.9477 70.2371 73.3024 71.2282 72.2768 72.2537C71.2397 73.2909 70.2602 73.9246 68.8889 74.4547C67.8518 74.858 66.2846 75.342 63.4153 75.4688C60.3039 75.6071 59.3705 75.6416 51.5 75.6416C43.618 75.6416 42.6846 75.6071 39.5848 75.4688C36.7039 75.342 35.1482 74.858 34.1111 74.4547C32.7398 73.9246 31.7488 73.2793 30.7232 72.2537C29.6861 71.2166 29.0523 70.2371 28.5223 68.8659C28.1189 67.8287 27.635 66.2616 27.5082 63.3922C27.3699 60.2809 27.3354 59.3475 27.3354 51.477C27.3354 43.5949 27.3699 42.6615 27.5082 39.5617C27.635 36.6809 28.1189 35.1252 28.5223 34.0881C29.0523 32.7168 29.6977 31.7258 30.7232 30.7002C31.7604 29.6631 32.7398 29.0293 34.1111 28.4992C35.1482 28.0959 36.7154 27.6119 39.5848 27.4852C42.6846 27.3469 43.618 27.3123 51.5 27.3123ZM51.5 22C43.4912 22 42.4887 22.0346 39.3428 22.1729C36.2084 22.3111 34.0535 22.8182 32.1867 23.5441C30.2393 24.3047 28.5914 25.3072 26.9551 26.9551C25.3072 28.5914 24.3047 30.2393 23.5441 32.1752C22.8182 34.0535 22.3111 36.1969 22.1729 39.3313C22.0346 42.4887 22 43.4912 22 51.5C22 59.5088 22.0346 60.5114 22.1729 63.6573C22.3111 66.7916 22.8182 68.9465 23.5441 70.8133C24.3047 72.7608 25.3072 74.4086 26.9551 76.045C28.5914 77.6813 30.2393 78.6954 32.1752 79.4444C34.0535 80.1704 36.1969 80.6774 39.3313 80.8157C42.4772 80.9539 43.4797 80.9885 51.4885 80.9885C59.4973 80.9885 60.4998 80.9539 63.6457 80.8157C66.7801 80.6774 68.935 80.1704 70.8018 79.4444C72.7377 78.6954 74.3856 77.6813 76.0219 76.045C77.6582 74.4086 78.6723 72.7608 79.4213 70.8248C80.1473 68.9465 80.6543 66.8032 80.7926 63.6688C80.9309 60.5229 80.9655 59.5203 80.9655 51.5115C80.9655 43.5028 80.9309 42.5002 80.7926 39.3543C80.6543 36.2199 80.1473 34.065 79.4213 32.1982C78.6953 30.2393 77.6928 28.5914 76.0449 26.9551C74.4086 25.3188 72.7608 24.3047 70.8248 23.5557C68.9465 22.8297 66.8031 22.3227 63.6688 22.1844C60.5113 22.0346 59.5088 22 51.5 22Z" fill="#080510"/>
<path d="M51.5 36.3467C43.134 36.3467 36.3467 43.134 36.3467 51.5C36.3467 59.866 43.134 66.6533 51.5 66.6533C59.866 66.6533 66.6533 59.866 66.6533 51.5C66.6533 43.134 59.866 36.3467 51.5 36.3467ZM51.5 61.3295C46.0725 61.3295 41.6705 56.9275 41.6705 51.5C41.6705 46.0725 46.0725 41.6705 51.5 41.6705C56.9275 41.6705 61.3295 46.0725 61.3295 51.5C61.3295 56.9275 56.9275 61.3295 51.5 61.3295Z" fill="#080510"/>
<path d="M70.7902 35.7474C70.7902 37.7063 69.2 39.2851 67.2525 39.2851C65.2936 39.2851 63.7148 37.6948 63.7148 35.7474C63.7148 33.7884 65.3051 32.2097 67.2525 32.2097C69.2 32.2097 70.7902 33.7999 70.7902 35.7474Z" fill="#080510"/>
<path d="M51 97.5C76.6812 97.5 97.5 76.6812 97.5 51C97.5 25.3188 76.6812 4.5 51 4.5C25.3188 4.5 4.5 25.3188 4.5 51C4.5 76.6812 25.3188 97.5 51 97.5Z" stroke="black" stroke-width="9"/>
</g>
</svg>
